<?xml version="1.0" encoding="utf-8"?>
<!-- Generator: Adobe Illustrator 27.8.1, SVG Export Plug-In . SVG Version: 6.00 Build 0)  -->
<svg version="1.1" id="Layer_1" xmlns="http://www.w3.org/2000/svg" xmlns:xlink="http://www.w3.org/1999/xlink" x="0px" y="0px"
	 viewBox="0 0 4000 4000" style="enable-background:new 0 0 4000 4000;" xml:space="preserve">
<style type="text/css">
	.st0{fill-rule:evenodd;clip-rule:evenodd;fill:#FFFFFF;}
	.st1{clip-path:url(#SVGID_00000115490153593510443600000002272116389173921431_);fill:url(#SVGID_1_);}
	.st2{fill:#FFFFFF;}
	
		.st3{clip-path:url(#SVGID_00000105396988798027045290000018041619931257535622_);fill:url(#SVGID_00000093855621807082144720000013357991304072968362_);}
	
		.st4{clip-path:url(#SVGID_00000126284934233943691320000005006663242777141179_);fill:url(#SVGID_00000132771528649615921610000011615173727993467057_);}
	
		.st5{clip-path:url(#SVGID_00000145775291255817448330000006965842868546682520_);fill:url(#SVGID_00000038405273062593043580000000824762034024813467_);}
	.st6{fill-rule:evenodd;clip-rule:evenodd;fill:#E6E6E6;}
</style>
<path class="st0" d="M1755.83,2884.8c-7.41-0.25-14.82-0.5-22.24-0.74c-0.27,4.47-0.74,8.99-1.36,13.55
	c11.17,1.32,22.34,2.61,33.52,3.88C1762.3,2896,1759.08,2890.41,1755.83,2884.8z"/>
<path class="st0" d="M2189.62,2906.63c2.29,5.41,4.43,10.89,6.42,16.42c15.5-0.72,30.98-1.65,46.45-2.81
	c-0.49-3.33-0.96-6.66-1.42-9.98C2223.92,2909,2206.77,2907.79,2189.62,2906.63z"/>
<path class="st0" d="M2090.84,2921.34c-2.15-3.44-4.34-6.87-6.6-10.24c-2.43-3.62-10.83-12.46-0.86-1.74
	c-1.79-1.93-3.57-3.86-5.33-5.8c-1.55,1.57-3.11,3.12-4.68,4.65c-5.64,5.5-11.49,10.83-17.57,15.9c9.06,0.25,18.12,0.46,27.19,0.59
	c3.32,0.05,6.63,0.08,9.95,0.12C2092.26,2923.66,2091.56,2922.5,2090.84,2921.34z"/>
<path class="st0" d="M1612.82,2880.53c-8.54-0.22-17.08-0.44-25.61-0.64c2.4,0.3,4.8,0.59,7.2,0.89c6.4,0.79,12.8,1.58,19.2,2.38
	C1613.33,2882.28,1613.06,2881.41,1612.82,2880.53z"/>
<path class="st0" d="M2100.91,2788.77c0.62,0.96,1.64,2.13,2.44,3.26c0.16,0.18,0.31,0.37,0.47,0.55c-1.8-3.95-3.53-5.74-4.18-5.94
	C2100.04,2787.37,2100.46,2788.08,2100.91,2788.77z"/>
<path class="st0" d="M2232.82,3062.36c0.69,1.38,3.19,7.11,3.87,8.45c1.99,3.91,4.15,7.73,6.43,11.48c0.43-0.92,0.96-2.06,1.44-3.09
	c0.81-2.16,1.94-5.11,2.25-6.05c1.01-3.04,1.93-6.1,2.77-9.19c1.44-5.37,2.61-10.82,3.53-16.3c0.19-2.42,0.48-4.84,0.65-7.26
	c0.61-8.75,0.69-17.52,0.41-26.28c-11.55,0.95-23.1,1.77-34.67,2.49c3.16,13.84,6.74,27.56,11.5,40.95
	C2231.27,3058.26,2232.04,3060.3,2232.82,3062.36z"/>
<path class="st0" d="M0.06,0.47v3999.94H4000V0.47H0.06z M3203.39,2890.9c-17.66,2.82-35.32,5.58-53,8.25
	c-143.87,21.74-288.78,38.44-434.39,40.78c-108.33,1.74-215.78-7.77-323.38-17.28c4.85,5.58,8.36,12.38,10.61,19.34
	c3.69,11.41,1.17,26.42-4.79,36.6c-5.37,9.17-17.39,20.11-28.39,21.83c-7.12,1.11-14.24,2.15-21.38,3.16
	c0.51,8.16,0.75,16.33,0.61,24.51c-1.09,61.22-23.67,117.22-67.8,160.12c-14.14,13.75-40.43,19.63-57.56,7.43
	c-41.26-29.41-68.92-67.4-85.36-115.24c-6.79-19.74-11.15-40.13-15.43-60.54c-14.57,0.1-29.14,0.04-43.73-0.21
	c-33.3-0.56-66.58-1.92-99.82-3.87c8.84,2.16,17.76,4,26.79,5.45c5.56,0.89,4.21,10.55-1.33,9.82c-0.44-0.06-0.89-0.12-1.33-0.18
	c0,0,0,0,0,0c-0.03-0.01-0.06-0.01-0.09-0.02c-25.51-3.39-50.86-7.83-76.04-13.12c-12.7-2.67-25.37-5.54-37.99-8.6
	c-20.32-1.78-40.62-3.73-60.9-5.81c-84.25-8.63-168.25-19.46-252.3-29.77c-83.38-10.23-166.85-19.96-250.62-26.46
	c-82.92-6.43-166.14-9.63-249.29-6.88c-26.6,0.88-46.38-22.47-47.5-47.5c-0.2-4.57,0.6-9.38,2.13-14.05h-78.44c-6.45,0-6.43-10,0-10
	h22.08c-15.56-7.83-25.89-24.21-26.72-42.62c-1.15-25.65,22.65-47.5,47.5-47.5c12.47,0,24.94,0.01,37.41,0.03
	c7.66-16.81,25.31-30.35,43.54-28.6c82.53,7.95,164.62,21.69,247.61,24.18c78.63,2.36,156.06-12.48,234.58-11.83
	c33.71,0.28,68.82,3.01,100.75,14.67c18.31-11.78,39.92-18.53,61.47-18.63c23.83-0.11,48.73,7.94,68.19,21.62
	c5.15,3.62,9.92,7.46,14.37,11.52c8.81,0.33,17.61,0.69,26.42,1.04c3.91-16.89,17.29-32.08,33.98-36.11
	c12.24-2.96,25.08-5.49,37.7-4.55c17.03,1.27,31.21,6.68,46.52,14.1c13.44,6.51,20.53,19.15,22.35,32.79
	c11.07,0.55,22.15,1.11,33.22,1.69c-5.79-25.21-3.57-52.19,3.23-77.52c7.98-29.71,43.4-43.7,69.78-28.39
	c24.58,14.27,43.43,34.03,53.65,60.67c6.31,16.46,6.91,35.26,3.76,52.75c33.97,2.15,67.93,4.44,101.88,6.9
	c0.74-11.54,2.1-23.13,4.26-34.79c3.82-20.67,26.39-34.28,45.8-34.87c76.51-2.35,152.61,6.95,228.63,14.19
	c34.78,3.32,69.62,6.22,104.54,7.45c17.15,0.6,34.32,0.81,51.48,0.46c8.91-0.19,17.82-0.51,26.72-1.02
	c3.82-0.22,7.64-0.46,11.45-0.74c2.54-0.19,5.09-0.45,7.64-0.6c1.33-0.08,5.73-0.74,3.42-0.33c1.69-0.27,3.37-0.54,5.06-0.81
	c4.18-0.67,8.37-1.34,12.55-1.99c9.42-1.48,18.84-2.91,28.28-4.25c24.2-3.42,48.46-6.59,72.84-8.46
	c79.85-6.13,179.62,0.82,233.59,66.15c0.06-0.01,0.12-0.02,0.18-0.03c35.3-4.96,70.54-10.33,105.74-15.95
	c26.37-4.21,49.79,6.47,58.43,33.18C3243.86,2855.01,3228,2886.97,3203.39,2890.9z"/>
<g>
	<defs>
		<path id="SVGID_13_" d="M1120.89,2257.02c-47.54-36.99-76.94-88.67-76.94-146.29c0-57.68,29.47-109.41,77.09-146.41
			c45.58-35.41,108.16-57.32,176.91-57.32c45.28,0,87.89,9.52,124.73,26.12c-6.58-22.23-11.22-44.45-14.07-66.38
			c-94.09,10.28-167.02-39.4-211.3-115.77c-30.4-52.43-46.86-117.77-46.66-184.2c0.18-66.5,17.03-134.52,53.22-192.3
			c65.08-103.91,190.93-174.23,391.91-142.9c36.14-42.06,85.16-68.22,127.29-86.98c83.13-37.01,177.33-57.92,276.96-57.92
			c114.44,0,314.17,42.17,403.78,144.97c201.27-31.52,327.25,38.83,392.38,142.83c36.19,57.78,53.04,125.8,53.22,192.3
			c0.19,66.43-16.27,131.78-46.66,184.2c-44.3,76.4-117.27,126.08-211.4,115.76c-2.36,21.34-6.5,43.11-12.66,65.05
			c36.13-15.77,77.64-24.76,121.68-24.76c68.74,0,131.33,21.91,176.9,57.32c47.63,37,77.09,88.73,77.09,146.41
			c0,57.61-29.39,109.28-76.92,146.27h309.06c15.86,0,28.72,12.86,28.72,28.72c0,15.86-12.86,28.72-28.72,28.72H2703.6l-3.22,0.02
			l-3.22-0.02h-697.13h-702.08H813.53c-15.86,0-28.72-12.86-28.72-28.72c0-15.86,12.86-28.72,28.72-28.72H1120.89z"/>
	</defs>
	<clipPath id="SVGID_00000132780675023314674000000007771561297494578860_">
		<use xlink:href="#SVGID_13_"  style="overflow:visible;"/>
	</clipPath>
	<linearGradient id="SVGID_1_" gradientUnits="userSpaceOnUse" x1="400.8714" y1="2515.1072" x2="3468.1709" y2="952.7928">
		<stop  offset="0" style="stop-color:#6A00B8"/>
		<stop  offset="1" style="stop-color:#16EA9E"/>
	</linearGradient>
	
		<rect x="784.81" y="1086.68" style="clip-path:url(#SVGID_00000132780675023314674000000007771561297494578860_);fill:url(#SVGID_1_);" width="2430.43" height="1227.8"/>
</g>
<path class="st2" d="M1512.06,2000.8c7.79,9.75,14.56,20.09,20.21,30.9c22.26,31.22,48.61,60.03,78.42,85.88
	c99.39,86.16,237.02,139.45,389.33,139.45c152.3,0,289.94-53.3,389.33-139.45c27.44-23.8,51.96-50.1,73.05-78.49
	c7.52-16.14,17.52-31.29,29.63-45.17c36.08-62.86,56.37-133.64,56.37-208.44c0-40.09-5.75-78.84-16.55-115.65
	c-11.22-38.25-27.89-74.66-49.23-108.53c54.56,36.51,107.23,132.51,110.95,248c70.61,8.89,125.83-28.82,159.59-87.04
	c25.43-43.86,39.2-99.02,39.04-155.48c-0.16-56.39-14.24-113.73-44.48-162.01c-51.31-81.92-150.81-138.2-310.51-119.91
	c6.86,16.77,11.09,34.72,12.15,53.93c-50.39-61.28-117.32-107-195.72-141.9c-75.71-33.7-161.95-52.75-253.62-52.75
	c-91.66,0-177.91,19.05-253.62,52.75c-78.4,34.9-150.33,87.59-200.72,148.87c2.81-22.61,8.55-42.83,16.48-60.97
	c-159.3-18.05-258.6,38.18-309.83,119.98c-30.24,48.28-44.32,105.63-44.48,162.01c-0.16,56.46,13.61,111.62,39.04,155.48
	c33.55,57.86,88.3,95.46,158.28,87.19c1.06-106.32,44.07-199.83,112.26-248.16c-21.33,33.87-38,70.28-49.23,108.53
	c-10.8,36.81-16.55,75.56-16.55,115.65C1451.65,1863.02,1473.47,1936.23,1512.06,2000.8"/>
<path class="st2" d="M1222.75,2154.49l-13.31,86.79c26.6,10.08,56.64,15.75,88.52,15.75c28.4,0,55.35-4.5,79.7-12.61l1.01-88.31
	l37.97,71.04c8.18-4.65,15.87-9.77,23-15.31c33.9-26.34,54.87-62.12,54.87-101.09c0-20.39-5.75-39.9-16.08-57.66
	c-1.95-2.99-3.86-5.99-5.73-8.99c-8.78-12.65-19.95-24.26-33.07-34.44c-35.94-27.92-86.02-45.2-141.68-45.2
	c-55.67,0-105.75,17.28-141.68,45.2c-33.89,26.34-54.87,62.12-54.87,101.09c0,38.98,20.98,74.76,54.87,101.09
	c4.83,3.75,9.92,7.31,15.23,10.66L1222.75,2154.49z"/>
<path class="st2" d="M2697.38,2257.02h5.74c34.13-0.35,66.09-7.2,93.9-18.99l4.03-82.08l32.93,61.81c2.76-1.92,5.46-3.89,8.07-5.92
	c33.89-26.34,54.87-62.12,54.87-101.09c0-38.98-20.98-74.76-54.87-101.09c-35.94-27.92-86.02-45.2-141.68-45.2
	c-55.66,0-105.75,17.27-141.69,45.2c-28.52,22.15-54.87,64.54-54.87,101.09c0,38.97,20.97,74.75,54.87,101.09
	c7.51,5.84,15.65,11.21,24.32,16.05l60.28-77.98l-20.2,95.3C2645.96,2252.55,2671.01,2256.73,2697.38,2257.02"/>
<g>
	<defs>
		<path id="SVGID_16_" d="M2238.42,1564.13c76.14,0,137.86,61.72,137.86,137.86c0,76.13-61.72,137.86-137.86,137.86
			c-76.13,0-137.85-61.72-137.85-137.86C2100.57,1625.85,2162.29,1564.13,2238.42,1564.13"/>
	</defs>
	<clipPath id="SVGID_00000146500099935229670560000013038583095983713713_">
		<use xlink:href="#SVGID_16_"  style="overflow:visible;"/>
	</clipPath>
	
		<linearGradient id="SVGID_00000176730166676398653920000014057466435323524773_" gradientUnits="userSpaceOnUse" x1="450.5458" y1="2612.6284" x2="3517.8386" y2="1050.3175">
		<stop  offset="0" style="stop-color:#6A00B8"/>
		<stop  offset="1" style="stop-color:#16EA9E"/>
	</linearGradient>
	
		<rect x="2100.57" y="1564.13" style="clip-path:url(#SVGID_00000146500099935229670560000013038583095983713713_);fill:url(#SVGID_00000176730166676398653920000014057466435323524773_);" width="275.71" height="275.71"/>
</g>
<path class="st0" d="M2305.91,1568.44c33.31,0,60.31,27,60.31,60.31c0,33.31-27.01,60.31-60.31,60.31s-60.31-27-60.31-60.31
	C2245.6,1595.44,2272.61,1568.44,2305.91,1568.44"/>
<g>
	<defs>
		<path id="SVGID_19_" d="M1751.63,1564.13c76.14,0,137.86,61.72,137.86,137.86c0,76.13-61.72,137.86-137.86,137.86
			c-76.14,0-137.86-61.72-137.86-137.86C1613.77,1625.85,1675.49,1564.13,1751.63,1564.13"/>
	</defs>
	<clipPath id="SVGID_00000179622338639376440730000013719161698927146140_">
		<use xlink:href="#SVGID_19_"  style="overflow:visible;"/>
	</clipPath>
	
		<linearGradient id="SVGID_00000158013273632068241720000015441780080337220263_" gradientUnits="userSpaceOnUse" x1="350.2691" y1="2415.7573" x2="3417.5632" y2="853.4457">
		<stop  offset="0" style="stop-color:#6A00B8"/>
		<stop  offset="1" style="stop-color:#16EA9E"/>
	</linearGradient>
	
		<rect x="1613.77" y="1564.13" style="clip-path:url(#SVGID_00000179622338639376440730000013719161698927146140_);fill:url(#SVGID_00000158013273632068241720000015441780080337220263_);" width="275.71" height="275.71"/>
</g>
<path class="st0" d="M1819.12,1568.44c33.31,0,60.31,27,60.31,60.31c0,33.31-27,60.31-60.31,60.31c-33.31,0-60.31-27-60.31-60.31
	C1758.81,1595.44,1785.81,1568.44,1819.12,1568.44"/>
<g>
	<defs>
		<path id="SVGID_22_" d="M2055.79,2016.08l15.13-26.21l15.12-26.2c11.83-20.47,11.83-43.91,0-64.38
			c-11.82-20.48-32.12-32.19-55.75-32.19h-30.25h-30.25c-23.64,0-43.94,11.72-55.76,32.19c-11.82,20.47-11.82,43.91,0,64.38
			l15.12,26.2l15.13,26.21c1.78,3.07,3.74,5.95,5.88,8.61h-0.01c-0.51,44.65-35.6,81.25-80.19,83.62
			c-44.6,2.37-83.37-30.31-88.6-74.66c-1.45,58.76,43.68,108.22,102.33,112.14c58.65,3.93,109.97-39.09,116.35-97.52
			c6.38,58.44,57.7,101.45,116.35,97.52c58.65-3.92,103.78-53.38,102.33-112.14c-5.22,44.35-43.99,77.03-88.6,74.66
			c-44.6-2.37-79.69-38.97-80.2-83.62h0C2052.05,2022.03,2054.02,2019.15,2055.79,2016.08"/>
	</defs>
	<clipPath id="SVGID_00000026132234693646912400000014424146095963241605_">
		<use xlink:href="#SVGID_22_"  style="overflow:visible;"/>
	</clipPath>
	
		<linearGradient id="SVGID_00000108297929822269307160000011657354309588947592_" gradientUnits="userSpaceOnUse" x1="525.3608" y1="2759.5203" x2="3592.6567" y2="1197.2078">
		<stop  offset="0" style="stop-color:#6A00B8"/>
		<stop  offset="1" style="stop-color:#16EA9E"/>
	</linearGradient>
	
		<rect x="1779.9" y="1867.09" style="clip-path:url(#SVGID_00000026132234693646912400000014424146095963241605_);fill:url(#SVGID_00000108297929822269307160000011657354309588947592_);" width="440.27" height="282.62"/>
</g>
<path class="st0" d="M2033.81,1864.94c18.84,0,34.1,7.87,34.1,17.59c0,9.72-15.26,17.59-34.1,17.59c-18.83,0-34.1-7.87-34.1-17.59
	C1999.72,1872.81,2014.98,1864.94,2033.81,1864.94"/>
<path class="st6" d="M1610.7,2029.03c-29.82-25.84-56.16-54.66-78.42-85.88c-5.65-10.81-12.42-21.14-20.21-30.9
	c-31.19-52.17-51.41-109.99-58.03-171.17c-1.57,14.59-2.38,29.39-2.38,44.39c0,77.55,21.81,150.76,60.41,215.33
	c7.79,9.75,14.56,20.09,20.21,30.9c22.26,31.22,48.61,60.03,78.42,85.88c99.39,86.16,237.02,139.45,389.33,139.45
	c152.3,0,289.94-53.3,389.33-139.45c27.44-23.8,51.96-50.1,73.05-78.49c7.52-16.14,17.52-31.29,29.63-45.17
	c36.08-62.86,56.37-133.64,56.37-208.44c0-14.99-0.8-29.8-2.37-44.38c-6.33,58.51-25.09,113.94-53.99,164.28
	c-12.11,13.88-22.11,29.03-29.63,45.17c-21.09,28.38-45.61,54.69-73.05,78.48c-99.39,86.16-237.02,139.46-389.33,139.46
	C1847.72,2168.48,1710.08,2115.18,1610.7,2029.03"/>
<path class="st6" d="M2482.62,1561.29c54.56,36.51,107.23,132.51,110.95,248c70.61,8.89,125.83-28.82,159.59-87.04
	c25.43-43.86,39.2-99.02,39.04-155.48c-0.02-8.17-0.34-16.37-0.96-24.55C2744.92,1835.48,2597.79,1578.36,2482.62,1561.29"/>
<path class="st6" d="M1517.43,1561.29c-54.56,36.51-107.23,132.51-110.96,248c-70.61,8.89-125.83-28.82-159.59-87.04
	c-25.43-43.86-39.2-99.02-39.04-155.48c0.03-8.17,0.34-16.37,0.96-24.55C1255.13,1835.48,1402.26,1578.36,1517.43,1561.29"/>
<path class="st6" d="M1260.61,1991.73c55.66,0,105.74,17.28,141.68,45.2c13.11,10.18,24.29,21.79,33.06,34.44c1.87,3,3.77,6,5.72,9
	c10.33,17.75,16.08,37.26,16.08,57.65c0,33.21-15.23,64.1-40.7,88.8l0.17,0.32c8.18-4.65,15.87-9.77,23-15.31
	c33.9-26.34,54.87-62.12,54.87-101.09c0-20.39-5.75-39.9-16.08-57.66c-1.95-2.99-3.86-5.99-5.73-8.99
	c-8.78-12.65-19.95-24.26-33.07-34.44c-35.94-27.92-86.02-45.2-141.68-45.2c-55.67,0-105.75,17.28-141.68,45.2
	c-4.62,3.59-9,7.36-13.12,11.29C1175.97,2002.56,1216.54,1991.73,1260.61,1991.73"/>
<path class="st6" d="M2607.52,2049.15c35.94-27.92,86.02-45.2,141.68-45.2c44.11,0,84.71,10.85,117.55,29.25
	c-7.16-8.47-15.45-16.35-24.69-23.54c-35.94-27.92-86.02-45.2-141.68-45.2c-55.66,0-105.75,17.27-141.69,45.2
	c-28.52,22.15-54.87,64.54-54.87,101.09c0,38.97,20.97,74.75,54.87,101.09c7.46,5.79,15.53,11.13,24.13,15.94
	c-19.09-22.56-30.18-49.21-30.18-77.55c0-14.93,3.09-29.39,8.78-43.02c9.14-12.74,17.4-25.57,24.83-38.45
	C2592.6,2061.78,2599.72,2055.21,2607.52,2049.15"/>
<path d="M3013.96,2587.07c-0.92,40.44-27.11,65.72-66.17,65.72c-48.72,0-81.8-39.06-81.8-103.39c0-62.96,32.17-100.18,82.26-100.18
	c45.03,0,68.93,31.71,90.99,31.71c17.46,0,31.7-16.54,31.7-34.92c0-32.16-47.79-68.01-120.39-68.01
	c-100.17,0-164.97,66.63-164.97,172.78c0,103.85,65.71,173.24,156.24,173.24c93.29,0,152.56-65.71,152.56-156.69
	c0-35.84-15.63-49.63-51.93-49.63h-54.68c-34.93,0-52.39,10.57-52.39,34.92c0,24.36,17.46,34.47,52.39,34.47H3013.96z
	 M2519.52,2552.14c0-64.79,32.17-102.93,79.49-102.93c47.33,0,79.5,38.14,79.5,102.93c0,62.04-32.63,100.64-79.5,100.64
	C2552.14,2652.78,2519.52,2614.18,2519.52,2552.14z M2438.64,2551.22c0,103.39,63.87,172.78,160.37,172.78
	c96.5,0,160.84-69.39,160.84-172.78c0-103.86-65.71-172.78-160.84-172.78C2503.89,2378.44,2438.64,2447.37,2438.64,2551.22z
	 M2208.88,2645.43v-188.41h32.63c60.2,0,90.07,29.87,90.07,90.07c0,65.71-28.95,98.34-88.69,98.34H2208.88z M2245.64,2387.64h-59.73
	c-41.35,0-51.47,16.08-51.47,52.38v227.46c0,35.38,11.03,46.87,50.55,46.87h68.01c99.72,0,159.46-65.25,159.46-166.81
	c0-58.36-26.66-109.83-69.39-136.93C2317.79,2394.53,2286.08,2387.64,2245.64,2387.64z M1888.59,2387.64h-83.63
	c-41.36,0-51.47,16.08-51.47,52.38v227.46c0,35.38,11.03,46.87,50.54,46.87h86.85c35.39,0,52.85-11.03,52.85-34.47
	c0-23.44-17.46-34.46-52.85-34.46h-62.95v-61.12h52.39c35.38,0,52.85-11.03,52.85-34.46c0-23.43-17.47-34.46-52.85-34.46h-52.39
	v-58.36h60.66c35.39,0,52.85-11.03,52.85-34.47C1941.44,2399.12,1923.98,2387.64,1888.59,2387.64z M1578.87,2457.02v208.62
	c0,35.39,11.95,52.85,37.22,52.85c25.27,0,37.22-17.46,37.22-52.85v-208.62h27.57c35.39,0,52.85-11.03,52.85-34.47
	c0-23.43-17.46-34.92-52.85-34.92H1551.3c-35.38,0-52.84,11.49-52.84,34.92c0,23.44,17.46,34.47,52.84,34.47H1578.87z
	 M1198.39,2574.2c0,97.42,54.68,149.8,140.15,149.8c85.47,0,140.16-52.38,140.16-149.8v-137.86c0-35.38-11.95-52.84-37.22-52.84
	c-25.27,0-37.22,17.46-37.22,52.84v129.59c0,57.9-22.52,86.85-65.72,86.85c-43.19,0-65.71-28.95-65.71-86.85v-129.59
	c0-35.38-11.95-52.84-37.22-52.84c-25.28,0-37.22,17.46-37.22,52.84V2574.2z M1065.59,2724c61.57,0,102.93-27.57,102.93-56.52
	c0-17.46-14.7-32.63-29.87-32.63c-17.46,0-38.14,17-69.39,17c-50.09,0-82.72-37.68-82.72-98.8c0-62.95,32.63-101.55,80.42-101.55
	c27.11,0,48.71,12.87,65.71,12.87c17.47,0,31.71-16.08,31.71-33.55c0-26.19-39.98-52.38-97.88-52.38
	c-90.07,0-160.83,68.01-160.83,172.78C905.67,2656.45,970.92,2724,1065.59,2724z"/>
<path d="M1659.42,2777c4.05-2.6,8.26-4.96,12.59-7.05c-6.39,1.03-12.32,2.8-17.76,5.24C1655.98,2775.76,1657.7,2776.37,1659.42,2777
	z"/>
<path d="M1733.07,2890.54c1.52-2.02,2.93-4.13,4.2-6.36c-1.22-0.04-2.45-0.08-3.67-0.12
	C1733.46,2886.21,1733.28,2888.37,1733.07,2890.54z"/>
<path d="M1290.84,2772.59c-1.97-0.93-4.27-1.4-6.93-1.4c-1.75,0-3.34,0.21-4.79,0.61
	C1283.03,2772.08,1286.93,2772.35,1290.84,2772.59z"/>
<path d="M2100.91,2788.77c0.62,0.96,1.64,2.13,2.44,3.26c0.16,0.18,0.31,0.37,0.47,0.55c-1.69-3.72-3.33-5.54-4.06-5.89
	c-0.01,0.04-0.01,0.09-0.02,0.13C2100.11,2787.48,2100.49,2788.13,2100.91,2788.77z"/>
</svg>
